<?xml version="1.0" encoding="UTF-8" standalone="no"?>
<!-- Created with Inkscape (http://www.inkscape.org/) -->
<svg xmlns:inkscape="http://www.inkscape.org/namespaces/inkscape" xmlns:rdf="http://www.w3.org/1999/02/22-rdf-syntax-ns#" xmlns="http://www.w3.org/2000/svg" xmlns:xlink="http://www.w3.org/1999/xlink" xmlns:ns1="http://sozi.baierouge.fr" xmlns:cc="http://creativecommons.org/ns#" xmlns:sodipodi="http://sodipodi.sourceforge.net/DTD/sodipodi-0.dtd" xmlns:dc="http://purl.org/dc/elements/1.1/" id="svg2" xml:space="preserve" viewBox="0 0 50.4 57.904" version="1.1" inkscape:version="0.91 r13725">
  <g id="g10" transform="matrix(1.25 0 0 -1.25 0 57.904)">
    <g id="g12">
      <path id="path14" style="fill-rule:evenodd;fill:#e2cd9a" d="m38.48 43.163-0.039-0.32-3.601 0.121c-0.453 0-1.227 0.055-2.32 0.16-1.012 0.078-1.797 0.121-2.36 0.121-2.984 0.079-4.492 0.118-4.519 0.118-0.375 0.027-1.532 0.175-3.481 0.441-1.652 0.215-3.238 0.32-4.758 0.32-1.867 0-3.629 0.094-5.281 0.278-3.734 0.402-6.414 0.574-8.043 0.523-0.476 0-0.812-0.027-1-0.082-0.211-0.027-0.383-0.187-0.519-0.48l-0.321-0.68-0.16-0.359 0.281 2.8 12.801-0.922c1.945-0.16 6.586-0.492 13.918-1 1.574-0.183 4.469-0.398 8.684-0.64 0.211 0 0.437-0.012 0.679-0.039h0.079l-0.04-0.36zm-1.921-1.601-1.438-0.039c-0.027 0.082-0.043 0.148-0.043 0.199l1.961-0.078 0.602-0.082h-1.082zm-1.52-10.559 1.441-0.238c-1.601 0.16-2.8 0.305-3.601 0.437h4.359v-0.16l-2.679 0.043 0.48-0.082zm-29.84-4.679 3.602-0.719-3.52 0.078-3 0.68c0.133-0.028 0.321-0.012 0.559 0.039l1.082 0.043h0.398l0.282 0.039 0.117-0.039 0.48-0.121zm-1.199 13.761-0.602-0.281c-0.21-0.105-0.398-0.281-0.558-0.519-0.16-0.266-0.215-0.602-0.16-1h0.398c0.188 0 0.309-0.028 0.363-0.083-0.109-0.078-0.175-0.144-0.203-0.199-0.078-0.078-0.117-0.148-0.117-0.199 0-0.055-0.043-0.309-0.121-0.762l-0.039-0.32-0.16-1.32c-0.028-0.106-0.028-0.278 0-0.52l-0.082-0.117h-0.039c-0.215-0.055-0.375-0.109-0.481-0.16l0.039 0.16 0.16 1.879 0.122 1.199 0.16 1.879h0.039c0.148 0.102 0.289 0.168 0.422 0.203h0.019c0.031 0.004 0.067 0.012 0.102 0.02 0.043 0.004 0.09 0.011 0.136 0.019l0.723 0.199-0.121-0.078zm-1.762-9.32c-0.023-0.055-0.05-0.109-0.078-0.16l-0.32-0.442-0.039-0.039 0.078 0.598 0.16 1.883c0.773 0 1.934 0.051 3.481 0.16-0.028 0-0.36-0.121-1-0.363l-1.2-0.36c-0.425-0.183-0.707-0.371-0.84-0.558-0.082-0.082-0.132-0.227-0.16-0.442 0-0.05-0.027-0.144-0.082-0.277z" inkscape:connector-curvature="0"/>
      <path id="path16" style="fill-rule:evenodd;fill:#796942" d="m38.398 42.324 0.082 0.839 0.04 0.36h-0.082c-0.239 0.027-0.465 0.039-0.68 0.039l2.562 0.363-0.16-1.601-0.519-0.2-1.961-0.32c-0.321-0.055-0.68-0.082-1.078-0.082l-0.961 0.16 2.718 0.043 0.039 0.399zm0.481-11.321h-3.84l-0.48 0.082 2.679-0.043 0.16 1.481 0.282 0.281c0.265 0.238 0.386 0.652 0.359 1.238-0.051 0.801-0.066 1.254-0.039 1.36 0.055 0.16 0.094 0.297 0.121 0.402 0.051 0.188 0.067 0.465 0.039 0.84-0.027 0.398-0.039 0.68-0.039 0.84-0.027 0.718-0.043 1.347-0.043 1.879l0.203 1.882h0.36c0.453 0 0.879 0.051 1.281 0.157l-0.844-10.278-0.199-0.121zm-1.879-2.48l0.039 0.32c0.109 0.055 0.242 0.082 0.402 0.082 0.348 0 0.559 0.024 0.637 0.078-0.426 0.133-0.758 0.199-1 0.199v0.043l0.121 1.239h1.039c0.16-0.028 0.387-0.039 0.684-0.039l-0.762-7.52c-0.027-0.027-0.133-0.043-0.32-0.043l-0.879-0.117c-0.027 0.238-0.027 0.547 0 0.918 0.078 0.402 0.117 0.707 0.117 0.922l0.043 0.758c0.133 0.668 0.145 1.148 0.039 1.441-0.082 0.051-0.121 0.106-0.121 0.16-0.051 0.133-0.078 0.321-0.078 0.559-0.027 0.082-0.039 0.16-0.039 0.242l0.078 0.758zm-0.48-8.801 0.402 0.203 0.398 0.16-0.8-0.363zm-34.282 6.441 2.442-0.48-4.36 0.121 1.918 0.359z" inkscape:connector-curvature="0"/>
      <path id="path18" style="fill-rule:evenodd;fill:#b59c60" d="m3.16 43.605-0.121-0.281 1.762 0.558c-0.293 0-0.68-0.039-1.16-0.117l0.398 0.117c-0.453 0-1.051-0.066-1.801-0.199l0.321 0.68c3.546 0.214 6.613 0.093 9.203-0.36 1.89-0.347 3.945-0.773 6.16-1.281 1.812-0.344 3.933-0.477 6.359-0.398 3.36 0.132 8.067 0.132 14.117 0l-0.039-0.399-2.718-0.043 0.961-0.16 0.437-0.078-1.961 0.078c-0.078 0.188-0.238 0.348-0.476 0.48-0.481-0.132-0.911-0.304-1.282-0.519-1.359 0.055-2.679 0.055-3.961 0-1.332-0.078-2.773-0.094-4.32-0.039 1.176 0.027 2.816 0.148 4.922 0.359l-10.082 0.121c-1.414 0.211-2.504 0.344-3.277 0.399l0.039-0.039c-0.133 0.027-0.266 0.039-0.403 0.039l0.043-0.039c-2 0.32-4.043 0.558-6.121 0.718-2.879 0.215-4.972 0.176-6.281-0.117l-1.84-0.441h-0.039l0.078 0.68 1.082 0.281zm35.121-2.16-1.722 0.117h1.082l0.121-0.039 0.515-0.039v-0.039h0.004zm-2.082-20.84-0.121-1.082-9.238 0.879-0.801 0.082 2.84 0.441c2.027 0.32 4.508 0.664 7.441 1.039v-0.039l-1.441-0.32c-0.293-0.055-0.652-0.176-1.078-0.36-0.563-0.242-0.922-0.386-1.082-0.441l-2.039-0.602c1.707 0.27 3.547 0.403 5.519 0.403zm-32.238 5.84h-0.039l-0.121 0.039-2.481-0.121-0.922 0.16 0.122 1.039h1.039l2.441 0.043h0.441c0.825-0.028 1.465-0.094 1.918-0.203 1.039-0.239 1.575-0.36 1.602-0.36-0.027 0.055-0.066 0.094-0.121 0.121l0.519-0.121c-0.398 0.508-0.945 0.868-1.64 1.082-0.559 0.266-0.973 0.438-1.239 0.52-0.292 0.105-0.828 0.16-1.601 0.16h-0.84c-0.453 0-1.133-0.055-2.039-0.16l-0.398-0.082 0.16 1.562 0.039 0.039 0.359 0.442c0.238 0.051 0.481 0.094 0.719 0.117l-0.078-0.598 0.039 0.039 0.32 0.442c0.028 0.051 0.051 0.105 0.078 0.16 0.856 0.105 1.629 0.078 2.321-0.082 0.453-0.106 1.308-0.691 2.562-1.758 1.332-1.121 3.078-2.027 5.238-2.723 0.133-0.05 0.266-0.093 0.403-0.117 0.957-0.64 1.89-0.922 2.797-0.84 0.269-0.054 0.546-0.121 0.839-0.203 0.11-0.183 0.27-0.371 0.481-0.558-0.238 0.078-0.414 0.093-0.52 0.039-0.16 0.027-0.281 0.027-0.359 0 0.027-0.188 0.293-0.332 0.801-0.438 0.187-0.054 0.414-0.121 0.679-0.203 0.106-0.133 0.188-0.277 0.239-0.437 0.347 0.05 0.679 0.132 1 0.238 0.586-0.078 1.242-0.106 1.961-0.078 0.746 0 1.574 0.023 2.48 0.078-0.027-0.027-0.039-0.055-0.039-0.078 0.051 0.023 0.117 0.066 0.199 0.117 0.559 0.055 1.149 0.121 1.758 0.203l-1.117-0.043c0 0.028 0.012 0.039 0.039 0.043h-0.238c0.879 0.344 2.039 0.586 3.48 0.719 1.707 0.16 2.957 0.375 3.758 0.641 1.199 0.078 2.652 0.16 4.359 0.238l1.321-0.16-0.078-0.758c-2.055 0.16-4.348 0.094-6.883-0.203-4.371-0.586-7.227-0.946-8.559-1.078-1.972-0.188-3.426-0.094-4.359 0.281-2.989 1.226-5.227 1.918-6.723 2.078l-4.879 0.641-0.48 0.121-0.117 0.039-0.282-0.039-0.121 0.039-0.238-0.039zm7.359-4.801-10.199 1 0.117 1.398c2 0.16 4.067 0.243 6.203 0.243l2.438-1.04c1.84-0.773 3.375-1.375 4.601-1.8l0.04-0.043h-0.04l-1.718 0.121-0.321 0.281c-0.296-0.027-0.652 0.094-1.082 0.359-0.64 0.375-0.984 0.575-1.039 0.602-0.293 0.105-0.761 0.211-1.398 0.32-1.414 0.184-2.563 0.145-3.442-0.121 0.188-0.027 0.625-0.039 1.321-0.039 0.531-0.027 0.972-0.066 1.32-0.121 0.453-0.082 0.957-0.242 1.52-0.48 0.32-0.133 0.812-0.332 1.48-0.602l0.199-0.078zm-4.679 11.441c-1.547 0-3.414-0.121-5.602-0.363h-0.039l0.121 0.84h5.039c0.16-0.133 0.32-0.293 0.481-0.477zm-5.442 1.239h-0.039l0.039 0.281c0.106 0.051 0.281 0.105 0.52 0.16h0.519l-0.039-0.16c0.106 0.051 0.266 0.105 0.481 0.16h0.039c0.586 0.027 1.203 0.012 1.84-0.043 0.214-0.051 0.468-0.184 0.761-0.398-0.453 0.027-1.027 0.039-1.718 0.039h-0.422c-0.559-0.004-1.219-0.02-1.981-0.039zm2.801 5.761 0.121 0.078-0.723-0.199c-0.046-0.008-0.093-0.015-0.136-0.019-0.035-0.008-0.071-0.016-0.102-0.02h-0.019c-0.196-0.035-0.375-0.062-0.539-0.082l0.679 0.32-1.043-0.238c-0.16-0.027-0.316-0.094-0.476-0.203h-0.043l0.043 0.602h0.039l0.719 0.238c0.082 0.027 0.16 0.043 0.242 0.043l-0.043-0.281 0.679 0.238c0.961 0.269 1.922 0.508 2.883 0.723-0.48 0.027-0.933 0.039-1.359 0.039-1.149 0.027-2.16-0.079-3.043-0.321h-0.039l0.082 0.68c2.105 0.266 3.973 0.426 5.598 0.48 0.027-0.16 0.027-0.253 0-0.281-0.079-0.133-0.36-0.238-0.84-0.32 0.105-0.453 0.359-0.664 0.761-0.637h0.079c-0.133-0.027-0.266-0.055-0.399-0.082-1.226-0.32-2.266-0.574-3.121-0.758zm-1.602-3.441c-0.132-0.027-0.265-0.055-0.398-0.082l0.078 0.48c0.082 0.453 0.121 0.707 0.121 0.762 0.106 0.027 0.215 0.039 0.321 0.039l-0.122-1.199zm7.321 5.558c1.308-0.023 2.402-0.132 3.281-0.32 0.879-0.183 1.906-0.453 3.078-0.797-0.051-0.187-0.09-0.386-0.117-0.601-1.469 0.508-2.883 0.785-4.242 0.84h-0.879c0.055 0.078 0.133 0.144 0.238 0.199-0.238 0.562-0.547 0.695-0.918 0.402-0.48-0.348-0.785-0.469-0.922-0.363 0.11 0.137 0.27 0.348 0.481 0.64zm19.722-6.679c0-0.211-0.015-0.414-0.043-0.598-2.531 0.133-5.039 0.371-7.519 0.719l-4.199 1.281c-0.106 0.211-0.215 0.41-0.321 0.598 0.774-0.188 1.614-0.414 2.52-0.68 2.535-0.719 4.84-1.133 6.922-1.238 0.879-0.055 1.758-0.082 2.64-0.082zm-11.441 0.722c-0.078 0.133-0.145 0.266-0.199 0.399 0.48-0.133 0.945-0.266 1.398-0.399l0.281-0.082-1.718 0.559v0.043c0.691-0.16 1.383-0.336 2.078-0.52l1.883-0.562c-1.442 0.215-2.684 0.402-3.723 0.562zm-1.68 4.118c-0.082 0.265-0.121 0.496-0.121 0.679 0.961-0.265 2.016-0.597 3.16-1-0.16 0-0.254-0.011-0.281-0.039-0.105 0.028-0.199 0.039-0.277 0.039-0.16 0-0.266-0.023-0.321-0.078 0.508-0.453 1.028-0.828 1.559-1.121-1.094 0.453-2.027 0.84-2.801 1.16-0.316 0.133-0.625 0.254-0.918 0.36zm-1.48-3.559c0.027 0.051 0.039 0.094 0.039 0.121-0.051 0.211-0.145 0.36-0.277 0.438 0.05 0 0.117-0.012 0.199-0.039 0.504-0.106 1-0.215 1.48-0.321 0.024-0.133 0.067-0.281 0.117-0.441-0.503 0.109-1.023 0.187-1.558 0.242zm-2.641 0.918 0.403-0.637c0.371 0.16 0.652 0.317 0.839 0.477 0.211-0.024 0.426-0.067 0.637-0.117-0.078 0-0.156-0.016-0.238-0.043-0.293-0.106-0.52-0.239-0.68-0.399-0.426 0.028-0.879 0.055-1.359 0.082 0.078 0.133 0.144 0.266 0.199 0.399-0.027 0.133-0.066 0.226-0.121 0.281 0.109 0 0.215-0.016 0.32-0.043zm0.52 0.801-0.16-0.078-0.039 0.039h-1.481c0.055 0.051 0.094 0.121 0.121 0.199 0.078 0 0.16-0.012 0.238-0.039v-0.121c0.27-0.028 0.524 0 0.762 0.082 0.188-0.028 0.375-0.055 0.559-0.082zm1-0.399c0 0.078-0.012 0.161-0.039 0.239 0.718-0.106 1.535-0.278 2.441-0.52 0.024-0.16 0.051-0.32 0.078-0.48l-2.48 0.761zm-2.879-0.281c-0.371-0.16-0.625-0.387-0.762-0.68h-0.637l0.079 0.082c0.16 0.211 0.187 0.438 0.082 0.68h0.32l0.078-0.16c0.105 0.051 0.215 0.094 0.32 0.117 0.16 0 0.332-0.012 0.52-0.039zm26.601-0.16c0.051 0.215 0.067 0.348 0.039 0.402-0.132 0.051-0.281 0.106-0.441 0.16 0.16 0.024 0.309 0.051 0.441 0.079l0.52 0.121-0.078-0.723c-0.188 0-0.348-0.012-0.481-0.039zm-5.082 0.48c0.082-0.214 0.121-0.425 0.121-0.64h-0.48v0.64h0.359zm-1.199-3.32c0.453 0.348 1.078 0.586 1.879 0.719 0.109 0.027 0.199 0.043 0.281 0.043 1.227 0.051 2.692 0.144 4.403 0.277l-0.082-1c-2.188-0.105-4.348-0.117-6.481-0.039zm-10.16-3.719c0-0.265 0.027-0.547 0.078-0.839-0.316 0.078-0.637 0.144-0.957 0.199-0.027 0.293-0.066 0.586-0.121 0.879 0.32-0.078 0.652-0.161 1-0.239zm12.32-1.8c-0.293 0-0.535-0.055-0.718-0.161-0.028 0.082-0.043 0.149-0.043 0.2l0.761-0.039zm-0.679-0.282c1.011-0.132 2.464-0.304 4.359-0.519l-0.039-0.321c-1.336 0.083-2.75 0.188-4.242 0.321-0.028 0.16-0.051 0.32-0.078 0.48v0.039zm-3.922 9.321-6.879 0.722c-0.078-0.027-0.266 0.039-0.559 0.2l-0.601 0.32c0.906-0.32 1.519-0.496 1.84-0.52 2.292-0.297 4.359-0.523 6.199-0.683v-0.039zm-7.16-0.118c0.535-0.109 1.269-0.175 2.203-0.203 0.824-0.05 1.625-0.078 2.398-0.078 0.906 0 1.785 0.028 2.641 0.078 0.027-0.16 0.066-0.32 0.121-0.48-3.414 0.109-5.867 0.336-7.363 0.683zm1.921-7.722c0-0.028-0.015-0.055-0.039-0.078-0.082-0.188-0.148-0.375-0.203-0.563-0.133 0.028-0.25 0.043-0.359 0.043-0.106 0.238-0.172 0.504-0.199 0.797 0.265-0.078 0.535-0.145 0.8-0.199zm-6.281 1.601c0.16-0.054 0.321-0.093 0.481-0.121 0.054-0.347 0.105-0.679 0.16-1-0.133 0.028-0.254 0.055-0.36 0.082-0.082 0.184-0.242 0.305-0.48 0.36-0.055-0.082-0.105-0.16-0.16-0.243-0.32 0.083-0.625 0.161-0.918 0.243-0.082 0.023-0.16 0.039-0.242 0.039-0.106 0.215-0.293 0.441-0.559 0.679l-0.68-0.359c-0.32 0.078-0.613 0.145-0.882 0.199 0.214 0.133 0.507 0.282 0.882 0.442 0.184 0.132 0.278 0.277 0.278 0.437 0.347-0.105 0.707-0.226 1.082-0.359l-0.403-0.199c0.215-0.829 0.657-1.055 1.321-0.68 0.269 0.133 0.426 0.293 0.48 0.48zm-9 5.039c-1.894-0.027-3.64-0.171-5.238-0.441l0.039 0.32c0.078 0.453 0.121 0.707 0.121 0.762 0 0.051 0.039 0.121 0.117 0.199 1.524 0.293 2.95 0.481 4.282 0.559-0.051-0.133-0.028-0.25 0.082-0.36 0.238-0.105 0.586-0.05 1.039 0.161 0.214 0.105 0.347 0.214 0.398 0.32h0.441l0.2-0.32c-0.188-0.028-0.375-0.067-0.559-0.118-0.613-0.187-1.043-0.296-1.281-0.32h0.441c-0.136-0.055-0.269-0.137-0.402-0.242l0.32-0.52zm0.082-4.121c-0.269 0.215-0.508 0.403-0.722 0.563h1c0.16-0.055 0.308-0.067 0.441-0.043 0.188-0.051 0.348-0.012 0.48 0.121-0.8 0.082-1.402 0.172-1.8 0.281-0.375 0.078-0.707 0.133-1 0.16-0.508 0.293-0.961 0.481-1.36 0.559 0.825-0.027 1.668-0.078 2.52-0.16 0.453-0.055 0.894-0.106 1.32-0.16 0-0.051 0.012-0.106 0.039-0.161 0.293 0.055 0.496-0.078 0.602-0.398 0.238 0.133 0.453 0.254 0.64 0.359 0.192-0.046 0.383-0.093 0.579-0.14-0.055 0.008-0.102 0-0.141-0.02-0.559-0.133-0.906-0.426-1.039-0.879l0.16-0.281c-0.055 0.027-0.094 0.039-0.121 0.039-0.481 0.082-1.012 0.137-1.598 0.16zm3.84 0.68c0.078-0.023 0.172-0.051 0.277-0.078 0.243-0.082 0.547-0.176 0.922-0.281-0.105-0.051-0.199-0.133-0.281-0.239-0.32-0.32-0.398-0.629-0.238-0.922-0.106 0.028-0.199 0.043-0.281 0.043-0.161 0.211-0.387 0.278-0.68 0.2-0.371 0.078-0.68 0.144-0.918 0.199l1.039 0.601c-0.055 0.293-0.16 0.504-0.32 0.637 0.078-0.027 0.171-0.051 0.281-0.078 0.051-0.027 0.117-0.055 0.199-0.082zm8.32-9.84c-0.347 0.028-0.734 0.067-1.16 0.121 0.133 0.106 0.266 0.227 0.399 0.36 0.586-0.106 1.148-0.172 1.679-0.2l1.762 0.2c0.024-0.161 0.039-0.305 0.039-0.438l-2.48-0.043h-0.239z" inkscape:connector-curvature="0"/>
      <path id="path20" style="fill-rule:evenodd;fill:#594c30" d="m39.922 41.402c-0.402-0.106-0.828-0.157-1.281-0.157h-0.364v0.239l-0.636 0.078-0.602 0.082-0.441 0.078c0.402 0 0.761 0.027 1.082 0.082l1.961 0.32-0.121-0.039 0.441-0.16-0.039-0.523zm-3.442-10.637-1.441 0.238h3.84l-0.238-0.121 0.281-0.16v-0.277c-0.293 0-0.52 0.011-0.684 0.039h-1.039v0.16l-0.719 0.121zm0.84-10.68-0.398-0.16-0.121 0.399c-0.188 0.535-0.215 1.039-0.082 1.519 0.16 0.746 0.242 1.52 0.242 2.32 0 1.094-0.055 1.84-0.16 2.239l0.121 1.359c0-0.078 0.012-0.16 0.039-0.238 0-0.238 0.027-0.426 0.078-0.559 0-0.054 0.039-0.109 0.121-0.16 0.106-0.293 0.094-0.773-0.039-1.441l-0.043-0.762c0-0.211-0.039-0.52-0.117-0.918-0.027-0.375-0.027-0.68 0-0.922l0.879 0.121c0.187 0 0.293 0.016 0.32 0.039l-0.039-0.398c0-0.481-0.094-1.215-0.281-2.199l-0.52-0.239zm0.078 12.438 0.243 2.359 0.082 1 0.199 1.84 0.078 0.723 0.082 0.918c0-0.532 0.012-1.161 0.039-1.879 0-0.16 0.016-0.442 0.039-0.84 0.028-0.375 0.016-0.652-0.039-0.84-0.027-0.105-0.066-0.242-0.121-0.402-0.023-0.106-0.012-0.559 0.043-1.36 0.023-0.586-0.094-1-0.363-1.238l-0.282-0.281zm-0.359-3.68 0.039 0.359c0.242 0 0.574-0.066 1-0.199-0.078-0.054-0.289-0.078-0.637-0.078-0.16 0-0.293-0.027-0.402-0.082z" inkscape:connector-curvature="0"/>
      <path id="path22" style="fill-rule:evenodd;fill:#c5aa6b" d="m9.719 38.285c-0.106 0-0.199-0.016-0.278-0.04-0.402-0.136-0.707-0.226-0.921-0.281-0.051 0-0.106-0.015-0.161-0.039h-0.519c0.238 0.024 0.668 0.133 1.281 0.32 0.184 0.051 0.371 0.09 0.559 0.118l0.039-0.078zm-0.84 2.039 0.082-0.559c0-0.242 0.094-0.453 0.277-0.641l1.082 0.598c-0.375 0.828-0.855 1.027-1.441 0.602zm2.441-0.481c0.614 0.32 0.785 0.668 0.52 1.039-0.508 0.055-1.028-0.105-1.559-0.48 0.106-0.692 0.453-0.879 1.039-0.559zm4.641 0.641c-0.082-0.719-0.027-1.602 0.16-2.641-0.906 0.242-1.723 0.414-2.441 0.52-0.055 0.16-0.16 0.336-0.321 0.519l-0.64-0.359c-0.184 0.027-0.371 0.054-0.559 0.082 0.266 0.078 0.52 0.211 0.762 0.398l-0.641 1.082c-0.402-0.16-0.668-0.386-0.801-0.683-0.082-0.184-0.105-0.438-0.082-0.758-0.078 0.027-0.16 0.039-0.238 0.039 0.028 0.027 0.051 0.066 0.078 0.121l-0.316 0.52c-0.535 0.054-1.043-0.106-1.524-0.481l0.082-0.16h-0.441c0.055 0.16-0.027 0.336-0.238 0.519-0.215 0.266-0.52 0.227-0.922-0.117-0.184-0.187-0.305-0.363-0.359-0.523-1.332-0.078-2.758-0.266-4.282-0.559 0.028 0.055 0.094 0.121 0.203 0.199-0.054 0.055-0.175 0.083-0.363 0.083h-0.398c-0.055 0.398 0 0.734 0.16 1 0.16 0.238 0.348 0.414 0.558 0.519l0.602 0.281c0.855 0.184 1.895 0.438 3.121 0.758 0.133 0.027 0.266 0.055 0.399 0.082 0.402 0.024 0.652-0.055 0.761-0.242-0.48-0.106-0.801-0.199-0.961-0.281-0.293-0.106-0.375-0.344-0.242-0.719 0.215 0.082 0.496 0 0.844-0.238 0.613 1.039 1.531 1.547 2.758 1.519-0.028 0.133 0.027 0.254 0.16 0.36h0.879c1.359-0.055 2.773-0.332 4.242-0.84zm-6.242 1.718c0.136 0.293 0.043 0.586-0.278 0.883-0.269-0.457-0.546-0.601-0.839-0.441-0.403 0.238-0.774 0.254-1.122 0.039 0.028-0.215 0.04-0.387 0.04-0.52-1.625-0.05-3.493-0.214-5.598-0.48l0.117 0.961 1.84 0.441c1.309 0.293 3.402 0.332 6.281 0.117 2.078-0.16 4.121-0.398 6.121-0.718l0.078-0.039c0.161-0.133 0.508-0.254 1.039-0.36 0.297-0.054 0.602-0.093 0.922-0.121 1.735-0.293 3.614-0.402 5.641-0.32 1.094 0.027 2.586 0.148 4.48 0.359l-9.203 0.121c-1.093 0.188-1.957 0.305-2.597 0.36l-0.039 0.039c0.773-0.055 1.863-0.188 3.277-0.399l10.082-0.121c-2.109-0.215-3.75-0.332-4.922-0.359 1.547-0.055 2.988-0.039 4.32 0.039 1.282 0.055 2.602 0.055 3.961 0-0.828-0.426-1.492-0.984-2-1.68 0.746-0.375 1.028-0.734 0.84-1.078-0.851 0.746-1.719 1.465-2.601 2.16-0.797-0.535-1.079-1.429-0.84-2.683-1.84 0.16-3.907 0.386-6.199 0.683-0.321 0.024-0.934 0.2-1.84 0.52l0.597-0.32c0.297-0.161 0.485-0.227 0.563-0.2l6.883-0.722c0.023-0.106 0.05-0.211 0.078-0.321-0.852-0.05-1.735-0.078-2.641-0.078 0.852 0.028 1.68 0.106 2.481 0.238l-7.602 0.883c-0.051-0.027-0.227 0.039-0.519 0.2l-0.52 0.32c-0.375 0.183-0.68 0.32-0.922 0.398 0.027 0.028 0.121 0.039 0.281 0.039-1.148 0.403-2.199 0.735-3.16 1-0.027 0.16-0.027 0.309 0 0.442-0.054-0.106-0.094-0.239-0.121-0.399-1.172 0.344-2.199 0.614-3.078 0.797-0.879 0.188-1.973 0.297-3.281 0.32zm-6.559 1.403-1.082-0.281 0.16 0.359c0.75 0.133 1.348 0.199 1.801 0.199l-0.398-0.117c-0.161-0.027-0.321-0.055-0.481-0.082v-0.078zm35.32-0.442-0.082-0.839c-6.05 0.132-10.757 0.132-14.117 0-2.426-0.079-4.547 0.054-6.359 0.398-2.215 0.508-4.27 0.934-6.16 1.281-2.59 0.453-5.657 0.574-9.203 0.36 0.136 0.293 0.308 0.453 0.519 0.48 0.188 0.055 0.524 0.082 1 0.082 1.629 0.051 4.309-0.121 8.043-0.523 1.652-0.184 3.414-0.278 5.277-0.278 1.524 0 3.11-0.105 4.762-0.32 1.945-0.266 3.106-0.414 3.481-0.441 0.027 0 1.531-0.039 4.519-0.118 0.559 0 1.348-0.043 2.36-0.121 1.093-0.105 1.867-0.16 2.32-0.16l3.598-0.121 0.042 0.32zm-0.839-1.601 0.64-0.078-0.519 0.039-0.121 0.039zm-5.282-3.399h-0.359c-0.027 0.348-0.027 0.536 0 0.559 0.133 0.055 0.641 0.188 1.52 0.402 0.613 0.161 1.093 0.414 1.441 0.758-0.188 0.11-0.16 0.453 0.078 1.043 0.082 0.238 0.109 0.438 0.082 0.598l1.438 0.039 1.722-0.117v-0.2l-0.203-1.882-0.078-0.918-0.52-0.121c-0.132-0.028-0.281-0.055-0.441-0.079-0.238 0.106-0.547 0.211-0.918 0.317-0.348 0.109-0.762 0.363-1.242 0.762-0.238-0.161-0.664-0.321-1.277-0.481-0.59-0.133-1.016-0.332-1.282-0.598 0-0.027 0.012-0.054 0.039-0.082zm-21.039-16.519c-1.734 0.133-3.8 0.305-6.199 0.519l-5.121 0.481 0.32 3.16 4.36-0.121-2.442 0.48-1.84 0.36 0.922-0.16 2.481 0.121 0.121-0.039-1.082-0.043c-0.238-0.051-0.426-0.067-0.559-0.039l3-0.68 3.52-0.078-3.602 0.719 4.879-0.641c1.496-0.16 3.734-0.852 6.723-2.078 0.933-0.375 2.387-0.469 4.359-0.281 1.332 0.132 4.188 0.492 8.559 1.078 2.535 0.297 4.828 0.363 6.883 0.203l-0.321-3.203 0.039 0.523v0.039c-2.933-0.375-5.414-0.719-7.441-1.039l-2.84-0.441 0.801-0.082c-0.852 0.054-1.668 0.121-2.442 0.199-0.96 0.082-1.851 0.16-2.679 0.242h-0.039c-3.118 0.266-5.492 0.453-7.118 0.559h-0.042l-0.04 0.043c-1.226 0.425-2.761 1.023-4.601 1.8l-2.438 1.04c-2.136 0-4.203-0.083-6.203-0.243l-0.117-1.398 10.199-1zm-7.359 4.801 0.238 0.039 0.121-0.039h-0.359zm-3.441 1.117 0.082 1l0.398 0.082c0.906 0.105 1.586 0.16 2.039 0.16h0.563c-0.403-0.027-0.934-0.082-1.602-0.16l-0.32-0.082-0.121-1h-1.039zm0.242 2.562 0.277 2.598c2.188 0.242 4.055 0.363 5.602 0.363 0.933-0.961 2.054-2.347 3.359-4.16 0.934-1.281 1.855-2.226 2.762-2.84-0.137 0.024-0.27 0.067-0.403 0.117-2.16 0.696-3.906 1.602-5.238 2.723-1.254 1.067-2.109 1.652-2.562 1.758-0.692 0.16-1.465 0.187-2.321 0.082 0.055 0.133 0.082 0.227 0.082 0.277 0.028 0.215 0.078 0.36 0.16 0.442 0.133 0.187 0.415 0.371 0.84 0.558l1.2 0.36c0.64 0.242 0.972 0.363 1 0.363-1.547-0.109-2.708-0.16-3.481-0.16l-0.16-1.883c-0.238-0.023-0.481-0.066-0.719-0.117l-0.359-0.442-0.039-0.039zm2.418 4.239c-0.309-0.008-0.633-0.02-0.981-0.039l-0.078-0.762h-1l0.078 0.762c0.762 0.019 1.422 0.035 1.981 0.039zm-1.981 0.242 0.52 5.117h0.043c0.16 0.109 0.316 0.176 0.476 0.203l1.043 0.238-0.679-0.32c0.164 0.02 0.343 0.047 0.539 0.082-0.133-0.035-0.274-0.101-0.422-0.203h-0.039l-0.16-1.879c-0.106 0-0.215-0.012-0.321-0.039 0-0.055-0.039-0.309-0.121-0.762l-0.078-0.48c0.133 0.027 0.266 0.055 0.398 0.082l-0.16-1.879h-0.519c-0.239-0.055-0.414-0.109-0.52-0.16zm0.68 6.398c0.883 0.242 1.894 0.348 3.043 0.321-0.777-0.028-1.481-0.133-2.121-0.321l-0.039-0.398c-0.082 0-0.16-0.016-0.242-0.043l-0.719-0.238 0.078 0.679zm35.562-3.32c0.133 0.027 0.293 0.039 0.481 0.039l-0.199-1.84c-1.711-0.133-3.176-0.226-4.403-0.277 2.321 0.371 3.707 0.89 4.16 1.558-0.105 0.106-0.132 0.254-0.082 0.442 0 0.023 0.016 0.051 0.043 0.078zm-0.043-5.16-0.16-1.481v0.16h-4.359c0.801-0.132 2-0.277 3.601-0.437l0.719-0.121v-0.16l-0.121-1.239-0.316 0.079h-3.442l-0.761 0.039c-0.211 0.75-0.731 1.601-1.559 2.562-0.32 0.211-0.719 0.305-1.199 0.277-0.535 0-0.949 0.094-1.242 0.282-0.825 1.492-2.079 2.215-3.758 2.16-1.629-0.055-2.789-0.707-3.481-1.961-0.242-0.426-0.347-0.945-0.32-1.559-0.348 0.078-0.68 0.161-1 0.239-0.188 0.855-0.52 1.8-1 2.839-0.375 0.774-0.707 1.454-1 2.043 1.039-0.16 2.281-0.347 3.719-0.562l-1.879 0.562c-0.695 0.184-1.387 0.36-2.078 0.52-0.028 0.051-0.055 0.105-0.082 0.16l4.199-1.281c2.48-0.348 4.988-0.586 7.519-0.719-0.132-0.64-0.558-1.066-1.277-1.281 0.106-0.348 0.414-0.641 0.918-0.879 0.535-0.27 0.934-0.309 1.199-0.121-0.105 0.984 0.2 1.719 0.922 2.199 2.133-0.078 4.293-0.066 6.481 0.039l-0.243-2.359zm-0.398-4-0.078-0.758-0.121-1.363-0.121-1.039-1.321 0.16c-1.707-0.078-3.16-0.16-4.359-0.238 0.16 0.05 0.293 0.105 0.398 0.16 0.911 1.066 1.348 2.093 1.321 3.078 1.492-0.133 2.906-0.238 4.242-0.321l0.039 0.321zm-7.559 7c-0.882 0-1.761 0.027-2.64 0.082-2.082 0.105-4.387 0.519-6.922 1.238-0.906 0.266-1.746 0.492-2.52 0.68-0.132 0.265-0.238 0.496-0.32 0.679-0.371 0.856-0.613 1.575-0.719 2.161 0.293-0.106 0.602-0.227 0.918-0.36 0.774-0.32 1.707-0.707 2.801-1.16 0.27-0.16 0.535-0.293 0.801-0.398 0.133-0.055 0.281-0.094 0.441-0.121 0.051-0.028 0.117-0.039 0.199-0.039l0.082-0.04c1.493-0.347 3.946-0.574 7.36-0.683 0.051-0.184 0.117-0.371 0.199-0.559 0.211-0.558 0.32-1.054 0.32-1.48zm3.039 2c-0.027-0.238-0.093-0.481-0.199-0.719-0.242-0.586-0.613-0.867-1.121-0.84 0.563 0.293 0.84 0.719 0.84 1.281v0.278h0.48zm-18.761 0.562v0.039l2.48-0.761c0-0.028 0.016-0.067 0.039-0.118l-2.519 0.84zm9.519-8.203c-0.05-0.105-0.09-0.211-0.117-0.32-0.082 0.109-0.16 0.23-0.242 0.363 0.109 0 0.226-0.015 0.359-0.043zm0.242 0.641c-0.265 0.054-0.535 0.121-0.8 0.199-0.028 0.027-0.039 0.066-0.039 0.121-0.082 0.535-0.094 0.895-0.039 1.082 0.078 0.371 0.32 0.785 0.718 1.238 0.426 0.481 1.039 0.68 1.84 0.602 0.719-0.082 1.293-0.336 1.719-0.762 0.453-0.426 0.547-0.773 0.281-1.039-0.215-0.187-0.48-0.265-0.801-0.242-0.718 0.137-1.371 0.082-1.961-0.16-0.32-0.133-0.625-0.477-0.918-1.039zm-7.679 2c-0.375 0.133-0.735 0.254-1.082 0.359 0 0.188-0.117 0.387-0.36 0.602-0.347 0.187-0.691 0.144-1.039-0.121-0.375 0.105-0.679 0.199-0.922 0.281 0.082 0 0.161 0.012 0.243 0.039 0.132 0.027 0.547 0.227 1.238 0.602-0.133 0.64-0.492 0.894-1.078 0.757-0.563-0.105-0.906-0.386-1.039-0.84 0.078-0.21 0.199-0.371 0.359-0.48-0.082 0.027-0.148 0.055-0.199 0.082-0.11 0.027-0.203 0.051-0.281 0.078-0.188 0.055-0.375 0.094-0.563 0.121-0.019 0.008-0.039 0.012-0.058 0.02-0.196 0.047-0.387 0.094-0.579 0.14 0.161 0.106 0.278 0.2 0.36 0.282 0.211 0.265 0.187 0.574-0.082 0.918-0.321 0.082-0.692 0-1.117-0.239-0.375-0.242-0.524-0.496-0.442-0.761-0.426 0.054-0.867 0.105-1.32 0.16-0.852 0.082-1.695 0.133-2.52 0.16-0.293 0.082-0.558 0.105-0.8 0.082l0.039-0.043c-0.637 0.055-1.254 0.066-1.84 0.043l0.082 0.117c-0.028 0.242-0.028 0.414 0 0.52l0.16 1.32c1.598 0.27 3.344 0.414 5.238 0.441l0.321-0.558c0.453 0.238 0.761 0.426 0.921 0.558h0.637c-0.023-0.027-0.039-0.05-0.039-0.078 0.16-0.508 0.508-0.668 1.039-0.48 0.32 0.133 0.563 0.293 0.723 0.48 0.48-0.027 0.933-0.054 1.359-0.082-0.105-0.133-0.187-0.281-0.238-0.441 0.156-0.504 0.504-0.664 1.039-0.477 0.453 0.16 0.746 0.399 0.879 0.719 0.535-0.055 1.055-0.133 1.558-0.242 0.161-0.637 0.364-1.332 0.602-2.078 0.293-0.907 0.52-1.735 0.68-2.481-0.16 0.028-0.321 0.067-0.481 0.121 0.106 0.293-0.027 0.614-0.398 0.961l-1-0.562zm-4.961 3.242 0.441-0.801 1.68 0.918c-0.133 0.641-0.496 0.895-1.082 0.762-0.559-0.133-0.906-0.426-1.039-0.879zm3.801-2.121c0.187-0.453 0.48-0.625 0.879-0.52 0.16 0.055 0.574 0.266 1.242 0.641-0.137 0.746-0.496 1.027-1.082 0.84-0.559-0.188-0.907-0.508-1.039-0.961zm-1.84-1.442c0.078-0.132 0.199-0.265 0.359-0.398 0.106 0.051 0.238 0.121 0.399 0.199 0.269-0.054 0.562-0.121 0.882-0.199l-0.961-0.519c0.215-1.067 0.747-1.36 1.598-0.883 0.59 0.297 0.789 0.656 0.602 1.082 0.082 0 0.16-0.016 0.242-0.039 0.293-0.082 0.598-0.16 0.918-0.243-0.399-0.453-0.906-0.851-1.52-1.199-0.746-0.398-1.465-0.613-2.16-0.64 0.238-0.559 0.586-0.961 1.039-1.2 1.254 0.586 2.36 1.188 3.321 1.801v0.918c0 0.082-0.012 0.149-0.04 0.203 0.106-0.027 0.227-0.054 0.36-0.082 0.215-1.492 0.105-2.652-0.32-3.48 0.16 0.16 0.402 0.133 0.718-0.078 0.321-0.188 0.321-0.375 0-0.563-1.972-0.48-4.383 0.735-7.238 3.641-1.012 1.039-1.922 1.879-2.719 2.519 0.586-0.023 1.117-0.078 1.598-0.16 0.027 0 0.066-0.012 0.121-0.039l0.32-0.519 0.602 0.32c0.238-0.055 0.547-0.121 0.918-0.199-0.188-0.082-0.602-0.293-1.238-0.641 0.16-0.641 0.531-0.894 1.117-0.762 0.535 0.11 0.867 0.403 1 0.883-0.051 0.133-0.117 0.238-0.199 0.32 0.082 0 0.175-0.015 0.281-0.043zm7.32-1.718c0.317-0.055 0.641-0.121 0.957-0.199 0.133-0.641 0.387-1.387 0.762-2.243 0.719-1.625 1.148-2.851 1.281-3.679l-1.762-0.2c-0.531 0.028-1.093 0.094-1.679 0.2 0.082 0.082 0.16 0.175 0.242 0.281-0.242 0.293-0.414 0.707-0.524 1.238-0.078 0.508-0.277 0.934-0.597 1.281 1.011 0.747 1.453 1.856 1.32 3.321zm-3.48-2.719c0.32 0.133 0.558 0.453 0.718 0.957 0.133 0.508 0.055 0.734-0.238 0.68 0.051-0.344-0.348-0.68-1.199-1-0.828-0.293-1.203-0.492-1.121-0.598 0.187 0.078 0.48 0.027 0.879-0.16 0.347-0.133 0.668-0.094 0.961 0.121zm-12.2-0.16h0.321c0.933 0 1.652-0.067 2.16-0.203l0.918-0.239c0.055-0.027 0.094-0.066 0.121-0.121-0.027 0-0.563 0.121-1.602 0.36-0.453 0.109-1.093 0.175-1.918 0.203zm4.559 5.957c-0.133-0.024-0.281-0.012-0.441 0.043h0.363c0.023 0 0.051-0.016 0.078-0.043zm6.801 1.762c-0.133 0.64-0.496 0.906-1.082 0.8-0.531-0.132-0.879-0.425-1.039-0.879l0.48-0.8 1.641 0.879zm-3.082-5.84c0.961 0.32 1.121 0.867 0.48 1.64l-1.359-0.761c0.082-0.184 0.226-0.332 0.441-0.438 0.211-0.137 0.36-0.281 0.438-0.441zm-4.321 6.718c0.321-0.906 0.989-1.011 2-0.32l-0.636 1.082-1.364-0.762zm15.204-12.359c0.105 0.027 0.226 0.039 0.359 0.039l1.117 0.043c-0.613-0.082-1.199-0.148-1.758-0.203 0.078 0.055 0.172 0.094 0.282 0.121zm-0.442-0.039v-0.121c-0.906-0.055-1.734-0.078-2.48-0.078 0.746 0.023 1.574 0.094 2.48 0.199zm-6.121 0.559h-0.039c-0.188 0.054-0.348 0.093-0.48 0.121-0.051 0.027-0.106 0.039-0.161 0.039 0.106 0.054 0.282 0.039 0.52-0.039 0.027-0.028 0.055-0.055 0.082-0.082 0.023-0.024 0.051-0.039 0.078-0.039zm-0.641 0.679c-0.293 0.082-0.57 0.149-0.839 0.203 0.214 0.024 0.429 0.079 0.64 0.157 0.055-0.133 0.121-0.25 0.199-0.36zm2.883-1.039c0.426-0.054 0.813-0.093 1.16-0.121h-0.441c-0.266 0-0.547 0.016-0.84 0.043 0.028 0.024 0.067 0.051 0.121 0.078z" inkscape:connector-curvature="0"/>
      <path id="path24" style="fill-rule:evenodd;fill:#968251" d="m2.359 46.124 3 0.2 15.121-0.922c1.227-0.051 3.692-0.184 7.399-0.399 3.789-0.238 6.082-0.414 6.883-0.519l5.558-0.559-2.558-0.363c-4.215 0.242-7.11 0.457-8.684 0.64-7.332 0.508-11.973 0.84-13.918 1l-12.801 0.922z" inkscape:connector-curvature="0"/>
      <path id="path26" style="fill-rule:evenodd;fill:#625027" d="m28.719 38.363v0.039c-0.239 1.254 0.043 2.148 0.84 2.683 0.882-0.695 1.75-1.414 2.601-2.16 0.188 0.344-0.094 0.703-0.84 1.078 0.508 0.696 1.172 1.254 2 1.68 0.371 0.215 0.801 0.387 1.282 0.519 0.238-0.132 0.398-0.292 0.476-0.48 0-0.051 0.016-0.117 0.043-0.199 0.027-0.16 0-0.36-0.082-0.598-0.238-0.59-0.266-0.933-0.078-1.043-0.348-0.344-0.828-0.597-1.441-0.758-0.879-0.214-1.387-0.347-1.52-0.402-0.027-0.023-0.027-0.211 0-0.559v-0.918c0-0.562-0.281-0.988-0.84-1.281 0.508-0.027 0.879 0.254 1.117 0.84 0.11 0.238 0.176 0.481 0.203 0.719 0 0.215-0.042 0.426-0.121 0.64-0.027 0.028-0.039 0.055-0.039 0.082 0.266 0.266 0.692 0.465 1.282 0.598 0.613 0.16 1.039 0.32 1.277 0.481 0.48-0.399 0.894-0.653 1.242-0.762 0.371-0.106 0.68-0.211 0.918-0.317 0.16-0.054 0.309-0.109 0.441-0.16 0.028-0.054 0.012-0.187-0.039-0.402-0.027-0.027-0.043-0.055-0.043-0.078-0.05-0.188-0.023-0.336 0.082-0.442-0.453-0.668-1.839-1.187-4.16-1.558-0.082 0-0.172-0.016-0.281-0.043-0.801-0.133-1.426-0.371-1.879-0.719-0.719-0.48-1.027-1.215-0.922-2.199-0.265-0.188-0.664-0.149-1.199 0.121-0.504 0.238-0.812 0.531-0.918 0.879 0.719 0.215 1.145 0.641 1.281 1.281 0.024 0.184 0.039 0.387 0.039 0.598 0 0.426-0.105 0.922-0.32 1.48-0.082 0.188-0.148 0.375-0.199 0.559-0.055 0.16-0.094 0.32-0.121 0.48-0.028 0.11-0.055 0.215-0.082 0.321zm-19 3.839c-0.211-0.292-0.371-0.503-0.481-0.64 0.137-0.106 0.442 0.015 0.922 0.363 0.371 0.293 0.68 0.16 0.918-0.402-0.105-0.055-0.183-0.121-0.238-0.199-0.133-0.106-0.188-0.227-0.16-0.36-1.227 0.028-2.149-0.48-2.758-1.519-0.348 0.238-0.629 0.32-0.844 0.238-0.133 0.375-0.051 0.613 0.242 0.719 0.16 0.082 0.481 0.175 0.961 0.281-0.109 0.187-0.359 0.266-0.761 0.242h-0.079c-0.402-0.027-0.652 0.184-0.761 0.637 0.48 0.082 0.761 0.187 0.84 0.32 0.027 0.028 0.027 0.121 0 0.281 0 0.133-0.012 0.305-0.04 0.52 0.348 0.215 0.719 0.199 1.122-0.039 0.293-0.16 0.57-0.016 0.839 0.441 0.321-0.297 0.414-0.59 0.278-0.883zm6.242-1.718c0.027 0.215 0.066 0.414 0.117 0.601 0.027 0.16 0.067 0.293 0.121 0.399-0.027-0.133-0.027-0.282 0-0.442 0-0.183 0.039-0.414 0.121-0.679 0.106-0.586 0.348-1.305 0.719-2.161 0.082-0.183 0.188-0.414 0.32-0.679 0.106-0.188 0.215-0.387 0.321-0.598 0.027-0.055 0.054-0.109 0.082-0.16v-0.043c0-0.023 0.011-0.051 0.039-0.078 0.054-0.133 0.121-0.266 0.199-0.399 0.293-0.589 0.625-1.269 1-2.043 0.48-1.039 0.812-1.984 1-2.839 0.055-0.293 0.094-0.586 0.121-0.879 0.133-1.465-0.309-2.574-1.32-3.321 0.32-0.347 0.519-0.773 0.597-1.281 0.11-0.531 0.282-0.945 0.524-1.238-0.082-0.106-0.16-0.199-0.242-0.281-0.133-0.133-0.266-0.25-0.399-0.36-0.054-0.027-0.093-0.054-0.121-0.078-0.133-0.082-0.281-0.16-0.441-0.242-0.321-0.106-0.653-0.188-1-0.238-0.051 0.16-0.133 0.304-0.239 0.437-0.132 0.188-0.281 0.348-0.441 0.481-0.027 0-0.051 0.015-0.078 0.039-0.027 0.027-0.055 0.054-0.082 0.082-0.211 0.187-0.371 0.371-0.481 0.558-0.078 0.11-0.144 0.227-0.199 0.36-0.211-0.078-0.426-0.133-0.64-0.157-0.907-0.082-1.84 0.2-2.797 0.84-0.907 0.614-1.828 1.559-2.762 2.84-1.305 1.813-2.426 3.199-3.359 4.16-0.161 0.184-0.321 0.344-0.481 0.477-0.32 0.32-0.601 0.574-0.84 0.762-0.293 0.214-0.547 0.347-0.761 0.398l-0.039 0.043c0.242 0.027 0.507 0 0.8-0.082 0.399-0.078 0.852-0.266 1.36-0.559 0.265-0.132 0.558-0.308 0.879-0.519 0.214-0.16 0.453-0.348 0.722-0.563 0.797-0.64 1.707-1.48 2.719-2.519 2.855-2.906 5.266-4.121 7.238-3.641 0.321 0.188 0.321 0.375 0 0.563-0.316 0.211-0.558 0.238-0.718 0.078 0.425 0.828 0.535 1.988 0.32 3.48-0.051 0.321-0.106 0.653-0.16 1-0.16 0.746-0.387 1.574-0.68 2.481-0.238 0.746-0.441 1.441-0.602 2.078-0.05 0.16-0.093 0.308-0.117 0.441-0.027 0.082-0.043 0.16-0.043 0.242-0.023 0.051-0.039 0.09-0.039 0.118-0.027 0.16-0.054 0.32-0.078 0.48-0.187 1.039-0.242 1.922-0.16 2.641zm7.199-16.801v0.242c0 0.133-0.015 0.277-0.039 0.438-0.133 0.828-0.562 2.054-1.281 3.679-0.375 0.856-0.629 1.602-0.762 2.243-0.051 0.292-0.078 0.57-0.078 0.839-0.027 0.614 0.078 1.133 0.32 1.559 0.692 1.254 1.852 1.906 3.481 1.961 1.679 0.055 2.933-0.668 3.758-2.16 0.293-0.188 0.707-0.282 1.242-0.282 0.476 0.028 0.879-0.066 1.199-0.277 0.824-0.961 1.348-1.816 1.559-2.562 0-0.051 0.015-0.118 0.039-0.2 0-0.027 0.015-0.066 0.043-0.121v-0.039c0.023-0.16 0.05-0.32 0.078-0.48 0.027-0.985-0.414-2.012-1.321-3.078-0.105-0.055-0.238-0.11-0.398-0.16-0.801-0.266-2.055-0.481-3.762-0.641-1.437-0.133-2.597-0.375-3.476-0.719l-0.16-0.082c-0.11-0.027-0.204-0.066-0.282-0.121-0.082-0.051-0.148-0.094-0.199-0.117 0 0.023 0.012 0.051 0.039 0.078zm-11.84 16.16c-0.586-0.32-0.933-0.133-1.039 0.559 0.531 0.375 1.051 0.535 1.559 0.48 0.265-0.371 0.094-0.719-0.52-1.039zm-2.441 0.481c0.586 0.425 1.066 0.226 1.441-0.602l-1.082-0.598c-0.183 0.188-0.277 0.399-0.277 0.641l-0.082 0.559zm0.84-2.039-0.039 0.078-0.2 0.32-0.082 0.16c0.481 0.375 0.989 0.535 1.524 0.481l0.316-0.52c-0.023-0.055-0.05-0.094-0.078-0.121-0.027-0.078-0.066-0.148-0.121-0.199-0.184-0.239-0.426-0.442-0.719-0.602-0.105-0.027-0.215-0.066-0.32-0.117l-0.078 0.16-0.203 0.36zm4-0.161v-0.039c-0.024-0.187-0.117-0.363-0.278-0.523-0.187-0.16-0.468-0.317-0.839-0.477l-0.403 0.637-0.238 0.441 0.598 0.282 0.16 0.078 0.64 0.359c0.161-0.183 0.266-0.359 0.321-0.519 0.027-0.078 0.039-0.161 0.039-0.239zm0.359-0.679c0.16-0.028 0.336-0.055 0.524-0.082 0.132-0.078 0.226-0.227 0.277-0.438 0-0.027-0.012-0.066-0.039-0.121-0.133-0.32-0.426-0.559-0.879-0.719-0.535-0.187-0.883-0.027-1.039 0.477 0.051 0.16 0.133 0.308 0.238 0.441 0.16 0.16 0.387 0.293 0.68 0.399 0.082 0.027 0.16 0.043 0.238 0.043zm8.602-6.723c0.027-0.293 0.093-0.559 0.199-0.797 0.082-0.137 0.16-0.254 0.242-0.363 0.027 0.109 0.067 0.215 0.117 0.32 0.055 0.188 0.121 0.375 0.203 0.563 0.024 0.023 0.039 0.05 0.039 0.078 0.293 0.562 0.598 0.906 0.918 1.039 0.59 0.242 1.243 0.297 1.961 0.16 0.321-0.023 0.586 0.055 0.801 0.242 0.266 0.266 0.172 0.613-0.281 1.039-0.426 0.426-1 0.68-1.719 0.762-0.801 0.078-1.414-0.121-1.84-0.602-0.398-0.453-0.64-0.867-0.718-1.238-0.055-0.187-0.043-0.547 0.039-1.082 0-0.055 0.011-0.094 0.039-0.121zm-9.879 1.48c-0.16 0.293-0.082 0.602 0.238 0.922 0.082 0.106 0.176 0.188 0.281 0.239 0.348 0.265 0.692 0.308 1.039 0.121 0.243-0.215 0.36-0.414 0.36-0.602 0-0.16-0.094-0.305-0.278-0.437-0.375-0.16-0.668-0.309-0.882-0.442-0.161-0.078-0.293-0.148-0.399-0.199-0.16 0.133-0.281 0.266-0.359 0.398zm3 0.321 1 0.562c0.371-0.347 0.504-0.668 0.398-0.961-0.054-0.187-0.211-0.347-0.48-0.48-0.664-0.375-1.106-0.149-1.321 0.68l0.403 0.199zm-1.16 1.121c0.132 0.453 0.48 0.773 1.039 0.961 0.586 0.183 0.945-0.094 1.082-0.84-0.668-0.375-1.082-0.586-1.242-0.641-0.399-0.105-0.692 0.067-0.879 0.52zm-3.801 2.121c0.133 0.453 0.48 0.746 1.039 0.879 0.586 0.133 0.949-0.121 1.082-0.762l-1.68-0.918-0.441 0.801zm3.601-3.961 0.68 0.359c0.266-0.238 0.453-0.464 0.559-0.679 0.187-0.426-0.012-0.785-0.602-1.082-0.851-0.477-1.383-0.184-1.598 0.883l0.961 0.519zm2.399-0.602c0.055 0.083 0.105 0.161 0.16 0.243 0.238-0.055 0.398-0.176 0.48-0.36 0.028-0.054 0.04-0.121 0.04-0.203v-0.918c-0.961-0.613-2.067-1.215-3.321-1.801-0.453 0.239-0.801 0.641-1.039 1.2 0.695 0.027 1.414 0.242 2.16 0.64 0.614 0.348 1.121 0.746 1.52 1.199zm-0.199-3.437c-0.293-0.215-0.614-0.254-0.961-0.121-0.399 0.187-0.692 0.238-0.879 0.16-0.082 0.106 0.293 0.305 1.121 0.598 0.851 0.32 1.25 0.656 1.199 1 0.293 0.054 0.371-0.172 0.238-0.68-0.16-0.504-0.398-0.824-0.718-0.957zm-4.84 9.32c-0.16-0.187-0.403-0.347-0.723-0.48-0.531-0.188-0.879-0.028-1.039 0.48 0 0.024 0.016 0.051 0.039 0.078 0.137 0.293 0.387 0.52 0.762 0.68 0.027 0.027 0.066 0.055 0.121 0.082 0.398 0.16 0.707 0.106 0.918-0.16 0.055-0.055 0.094-0.148 0.121-0.281-0.055-0.133-0.121-0.266-0.199-0.399zm-2.36 0.078c-0.16-0.132-0.468-0.32-0.921-0.558l-0.321 0.558-0.32 0.52c0.133 0.105 0.266 0.187 0.402 0.242h0.078c0.055 0.024 0.106 0.039 0.161 0.039h0.16c0.32-0.027 0.574 0.039 0.761 0.199 0.051-0.078 0.106-0.16 0.161-0.238 0.105-0.242 0.078-0.469-0.082-0.68l-0.079-0.082zm1.579-3.14c0.019-0.008 0.039-0.012 0.058-0.02 0.188-0.027 0.375-0.066 0.563-0.121 0.16-0.133 0.265-0.347 0.32-0.637l-1.039-0.601-0.602-0.32-0.32 0.519-0.16 0.281c0.133 0.453 0.48 0.746 1.039 0.879 0.039 0.02 0.086 0.028 0.141 0.02zm-0.579 0.14c-0.187-0.105-0.402-0.226-0.64-0.359-0.106 0.32-0.309 0.453-0.602 0.398-0.027 0.055-0.039 0.11-0.039 0.161-0.082 0.265 0.067 0.519 0.442 0.761 0.425 0.239 0.796 0.321 1.117 0.239 0.269-0.344 0.293-0.653 0.082-0.918-0.082-0.082-0.199-0.176-0.36-0.282zm2.079-1.918c0.082-0.082 0.148-0.187 0.199-0.32-0.133-0.48-0.465-0.773-1-0.883-0.586-0.132-0.957 0.121-1.117 0.762 0.636 0.348 1.05 0.559 1.238 0.641 0.293 0.078 0.519 0.011 0.68-0.2zm-0.122 1.399c-0.105 0.027-0.199 0.055-0.277 0.078-0.16 0.109-0.281 0.27-0.359 0.48 0.133 0.454 0.476 0.735 1.039 0.84 0.586 0.137 0.945-0.117 1.078-0.757-0.691-0.375-1.106-0.575-1.238-0.602-0.082-0.027-0.161-0.039-0.243-0.039zm-4.878 4.918c0.054 0.16 0.175 0.336 0.359 0.523 0.402 0.344 0.707 0.383 0.922 0.117 0.211-0.183 0.293-0.359 0.238-0.519-0.051-0.106-0.184-0.215-0.398-0.32-0.453-0.211-0.801-0.266-1.039-0.161-0.11 0.11-0.137 0.227-0.082 0.36zm4.64 0.043c-0.238-0.082-0.492-0.11-0.762-0.082v0.121c-0.023 0.32 0 0.574 0.082 0.758 0.133 0.297 0.399 0.523 0.801 0.683l0.641-1.082c-0.242-0.187-0.496-0.32-0.762-0.398zm3.641-3.281-1.641-0.879-0.48 0.8c0.16 0.454 0.508 0.747 1.039 0.879 0.586 0.106 0.949-0.16 1.082-0.8zm-7.403 0.878 1.364 0.762 0.636-1.082c-1.011-0.691-1.679-0.586-2 0.32zm4.321-6.718c-0.078 0.16-0.227 0.304-0.438 0.441-0.215 0.106-0.359 0.254-0.441 0.438l1.359 0.761c0.641-0.773 0.481-1.32-0.48-1.64z" inkscape:connector-curvature="0"/>
      <path id="path28" style="fill-rule:evenodd;fill:#96814f" d="m11.32 21.644-0.199 0.078c-0.668 0.27-1.16 0.469-1.48 0.602-0.563 0.238-1.067 0.398-1.52 0.48-0.348 0.055-0.789 0.094-1.32 0.121-0.696 0-1.133 0.012-1.321 0.039 0.879 0.266 2.028 0.305 3.442 0.121 0.637-0.109 1.105-0.215 1.398-0.32 0.055-0.027 0.399-0.227 1.039-0.602 0.426-0.265 0.786-0.386 1.082-0.359l0.321-0.281-1.442 0.121zm25.68 6.879c-1.895 0.215-3.348 0.387-4.359 0.519-0.028 0.055-0.039 0.094-0.039 0.121 0.183 0.106 0.425 0.161 0.718 0.161h3.442l0.316-0.079v-0.043l-0.039-0.359-0.039-0.32zm-0.68-6.598-0.043-0.523-0.078-0.797c-1.972 0-3.812-0.133-5.519-0.403l2.039 0.602c0.16 0.055 0.519 0.199 1.082 0.441 0.426 0.184 0.785 0.305 1.078 0.36l1.441 0.32zm-19.679 20.559c0.64-0.055 1.504-0.172 2.597-0.36l9.203-0.121c-1.894-0.215-3.386-0.332-4.48-0.359-2.027-0.082-3.906 0.027-5.641 0.32-0.32 0.028-0.625 0.067-0.922 0.121-0.531 0.106-0.878 0.227-1.039 0.36l-0.078 0.039-0.043 0.039c0.137 0 0.27-0.012 0.403-0.039zm3.398-3.641c-0.531 0.293-1.051 0.668-1.559 1.121 0.051 0.055 0.161 0.078 0.321 0.078 0.078 0 0.172-0.011 0.277-0.039 0.242-0.078 0.547-0.215 0.922-0.398l0.52-0.32c0.292-0.161 0.468-0.227 0.519-0.2l7.602-0.883c-0.801-0.132-1.629-0.21-2.481-0.238-0.773 0-1.574 0.028-2.398 0.078-0.934 0.028-1.668 0.094-2.203 0.203l-0.079 0.04c-0.082 0-0.148 0.011-0.203 0.039-0.156 0.027-0.304 0.066-0.437 0.121-0.266 0.105-0.531 0.238-0.801 0.398zm-2.238-2.199c-0.028 0.027-0.039 0.055-0.039 0.078l1.718-0.559-0.281 0.082c-0.453 0.133-0.918 0.266-1.398 0.399zm-1.52 0.359c-0.48 0.106-0.976 0.215-1.48 0.321-0.082 0.027-0.149 0.039-0.199 0.039-0.188 0.027-0.364 0.054-0.524 0.082-0.211 0.05-0.426 0.093-0.637 0.117 0.161 0.16 0.254 0.336 0.278 0.523l2.519-0.84c0-0.082 0.016-0.16 0.043-0.242zm-6.562 1.282 0.203-0.36h-0.32c-0.055 0.078-0.11 0.16-0.161 0.238-0.187-0.16-0.441-0.226-0.761-0.199h-0.16c0.214 0.055 0.519 0.149 0.921 0.281 0.079 0.024 0.172 0.04 0.278 0.04zm1.32 0.199h1.481l0.039-0.039-0.598-0.282 0.238-0.441c-0.105 0.027-0.211 0.043-0.32 0.043-0.211 0.266-0.52 0.32-0.918 0.16-0.055-0.027-0.094-0.055-0.121-0.082-0.188 0.027-0.36 0.039-0.52 0.039 0.293 0.16 0.535 0.363 0.719 0.602zm-7.398 5.281c0.48 0.078 0.867 0.117 1.16 0.117l-1.762-0.558 0.121 0.281v0.078c0.16 0.027 0.32 0.055 0.481 0.082zm1.281-2.441c0.426 0 0.879-0.012 1.359-0.039-0.961-0.215-1.922-0.454-2.883-0.723l-0.679-0.238 0.043 0.281 0.039 0.398c0.64 0.188 1.344 0.293 2.121 0.321zm4.078-7.762c-0.027 0.027-0.055 0.043-0.078 0.043h-1.363c-0.321 0.211-0.614 0.387-0.879 0.519 0.293-0.027 0.625-0.082 1-0.16 0.398-0.105 1-0.199 1.8-0.281-0.132-0.133-0.292-0.172-0.48-0.121zm-6.879 0 0.078 0.762c0.348 0.019 0.672 0.031 0.981 0.039h0.422c0.691 0 1.265-0.012 1.718-0.039 0.239-0.188 0.52-0.442 0.84-0.762h-4.039zm5.719-6.399-0.918 0.239c-0.508 0.136-1.227 0.203-2.16 0.203h-0.762l-2.441-0.043 0.121 1 0.32 0.082c0.668 0.078 1.199 0.133 1.602 0.16h0.277c0.773 0 1.309-0.055 1.601-0.16 0.266-0.082 0.68-0.254 1.239-0.52 0.695-0.214 1.242-0.574 1.64-1.082l-0.519 0.121zm16.121-3.281c-0.133 0-0.254-0.012-0.359-0.039l0.16 0.082h0.238c-0.027-0.004-0.039-0.015-0.039-0.043zm-6.922 0.481c0.16-0.133 0.309-0.293 0.441-0.481-0.265 0.082-0.492 0.149-0.679 0.203-0.508 0.106-0.774 0.25-0.801 0.438 0.078 0.027 0.199 0.027 0.359 0 0.055 0 0.106-0.012 0.161-0.039 0.132-0.028 0.292-0.067 0.48-0.121h0.039zm6.121-0.559c-0.906-0.105-1.734-0.176-2.48-0.199-0.719-0.028-1.375 0-1.961 0.078 0.16 0.082 0.308 0.16 0.441 0.242 0.293-0.027 0.57-0.043 0.84-0.043h0.68l2.48 0.043v-0.121z" inkscape:connector-curvature="0"/>
      <path id="path30" style="fill-rule:evenodd;fill:#493e27" d="m36.281 21.402 0.321 3.203 0.078 0.758 0.121 1.039c0.105-0.399 0.16-1.145 0.16-2.239 0-0.8-0.082-1.574-0.242-2.32-0.133-0.48-0.106-0.984 0.082-1.519l0.121-0.399-0.402-0.199-0.442-0.203 0.121 1.082 0.082 0.797z" inkscape:connector-curvature="0"/>
      <path id="path32" style="fill-rule:evenodd;fill:#7d6742" d="m17.281 1.163h-1.281l-0.359 0.641c-0.801 1.094-1.106 2.254-0.922 3.481 0.933 5.625 1.469 8.601 1.601 8.917 0.106 0.27 0.442 0.844 1 1.723 0.746 0.957 1.215 1.707 1.399 2.238l0.16 0.801-0.918 0.481-0.16-0.442c-0.16-0.691-0.426-1.187-0.801-1.48-0.508-0.375-0.867-0.668-1.078-0.879-0.402-0.402-0.684-0.867-0.844-1.402l-0.277-1.36c-0.613-4.558-0.973-6.894-1.082-7-0.024 0.266 0.093 1.629 0.359 4.082 0.297 2.531 0.442 3.891 0.442 4.078 0 0.586 0.132 1.203 0.402 1.84 0.316 0.75 0.719 1.363 1.199 1.84 0.211 0.242 0.531 0.574 0.957 1-0.933 0.293-1.824 0.48-2.68 0.563l0.043 0.558c0.797-0.027 1.719-0.133 2.758-0.32 0.16-0.028 1.067-0.227 2.723-0.598 0.664-0.137 1.211-0.269 1.637-0.402-0.079-0.664-0.145-1.305-0.2-1.918-0.187 0.051-0.425 0.183-0.718 0.398l-0.52 0.36-0.043-0.641v0.641l-1.117 0.562-0.16-1.32c-0.106-0.559-0.332-1.414-0.68-2.559-0.133-0.535-0.773-3.281-1.922-8.242-0.183-0.613-0.277-1.441-0.277-2.48 0-0.133-0.016-0.399-0.043-0.801 0-0.348 0.055-0.586 0.16-0.719 0.109-0.187 0.281-0.227 0.523-0.121 0.211 0.082 0.372 0.215 0.477 0.402 0.16 0.293 0.215 0.719 0.16 1.278-0.051 0.773-0.078 1.214-0.078 1.32 0.399-0.32 0.625-0.547 0.68-0.68 0.078-0.133 0.121-0.613 0.121-1.441l-0.242-2.36-0.399-0.039zm-4.441 0.719c-0.051 0.055-0.106 0.094-0.16 0.121l0.519 1.559c-0.027-0.426 0.016-1.094 0.121-2-0.187 0.16-0.347 0.269-0.48 0.32zm6.68-0.918c-0.079 0-0.145 0.012-0.2 0.039-0.132 0.028-0.265 0.043-0.398 0.043l-0.402 0.078c0.242 0.426 0.468 1.188 0.679 2.282 0.074 0.425 0.117 1.23 0.121 2.418 0.012-0.555 0.051-1.243 0.121-2.059 0.079-1.254 0.106-2.188 0.079-2.801z" inkscape:connector-curvature="0"/>
      <path id="path34" style="fill-rule:evenodd;fill:#957c50" d="m13.32 1.562c-0.105 0.91-0.148 1.574-0.121 2l-0.519-1.559c0.054-0.027 0.105-0.066 0.16-0.117-0.238 0.133-0.481 0.227-0.719 0.277h-0.082c0.188 1.922 0.375 3.403 0.563 4.442 0.21 1.226 0.597 4.187 1.16 8.879l0.718 5.922h0.04l-0.079-0.559-0.043-0.562c0.856-0.083 1.747-0.27 2.68-0.563-0.426-0.426-0.746-0.758-0.957-1-0.48-0.477-0.883-1.09-1.199-1.84-0.27-0.637-0.402-1.25-0.402-1.84 0-0.183-0.145-1.547-0.442-4.078-0.266-2.453-0.383-3.816-0.359-4.082 0.109 0.106 0.469 2.442 1.082 7l0.277 1.36c0.16 0.535 0.442 1 0.844 1.402 0.211 0.211 0.57 0.504 1.078 0.879 0.375 0.293 0.641 0.785 0.801 1.48l0.16 0.442 0.918-0.481-0.16-0.801c-0.184-0.531-0.653-1.281-1.399-2.238-0.558-0.883-0.894-1.453-1-1.723-0.132-0.316-0.668-3.292-1.601-8.917-0.184-1.227 0.121-2.387 0.922-3.481l0.359-0.641h-0.121l-2.481 0.36c-0.023 0.027-0.05 0.039-0.078 0.039zm5.602-0.52c-0.535 0.082-1.082 0.121-1.641 0.121l0.399 0.039 0.242 2.36c0 0.828-0.043 1.308-0.121 1.441-0.055 0.133-0.281 0.36-0.68 0.68 0-0.106 0.024-0.547 0.078-1.32 0.055-0.559 0-0.985-0.16-1.278-0.105-0.187-0.266-0.32-0.48-0.402-0.239-0.106-0.414-0.066-0.52 0.121-0.105 0.133-0.16 0.371-0.16 0.719 0.027 0.398 0.043 0.668 0.043 0.801 0 1.039 0.09 1.867 0.277 2.48 1.149 4.957 1.789 7.707 1.922 8.238 0.348 1.149 0.574 2 0.68 2.559l0.16 1.32 1.117-0.558v-0.641l0.043 0.641 0.52-0.36c0.293-0.215 0.531-0.347 0.718-0.398-1.011-9.492-1.558-14.762-1.64-15.801l-0.078-0.879c-0.028 0.024-0.067 0.039-0.121 0.039 0.027 0.613 0 1.547-0.079 2.801-0.07 0.816-0.109 1.5-0.121 2.059-0.004-1.188-0.047-1.993-0.121-2.422-0.211-1.09-0.437-1.852-0.679-2.278l0.402-0.082z" inkscape:connector-curvature="0"/>
      <path id="path36" style="fill-rule:evenodd;fill:#645335" d="m14.52 21.402h0.039c1.629-0.106 4-0.289 7.121-0.559-0.055-0.453-0.094-0.891-0.121-1.32-0.426 0.137-0.973 0.269-1.637 0.402-1.656 0.371-2.563 0.574-2.723 0.598-1.039 0.187-1.961 0.293-2.758 0.32l0.079 0.559z" inkscape:connector-curvature="0"/>
      <path id="path38" style="fill-rule:evenodd;fill:#6e5a3c" d="m24.039 16.804c-0.023-0.105-0.039-0.211-0.039-0.32-0.16-0.559-0.266-1-0.32-1.321-0.934-6.347-1.399-9.718-1.399-10.121v-0.918c0.028-0.375 0.067-0.679 0.117-0.922 0.11 0.293 0.176 0.52 0.204 0.684 0 1.066 0.066 1.863 0.199 2.399l0.64 3.96c-0.109-1.253-0.226-2.656-0.363-4.199-0.023-0.027-0.039-0.07-0.039-0.121-0.027-0.215-0.039-0.441-0.039-0.68-0.078-0.75-0.148-1.535-0.199-2.359-0.028-0.055-0.039-0.121-0.039-0.203-0.297-0.106-0.574-0.293-0.84-0.559-0.188-0.078-0.387-0.172-0.602-0.281l-0.199 1.68c-0.055 0.429 0.25 3.613 0.918 9.562 0.055 0.371 0.16 0.852 0.32 1.438 0.215 0.695 0.348 1.16 0.399 1.402l0.203 1.481 0.359-0.043 0.719-0.559zm-3.32-15.281c-0.293-0.16-0.614-0.36-0.957-0.598h-0.121l0.078 0.879c0.082 1.039 0.629 6.309 1.64 15.801 0.055 0.613 0.121 1.254 0.2 1.918 0.027 0.426 0.066 0.867 0.121 1.32h0.039l-0.117-1.199-0.204-2.199h0.403c-0.028-0.27-0.121-0.91-0.281-1.922-0.161-0.774-0.227-1.399-0.2-1.879 0.028-0.613-0.066-2.481-0.281-5.602-0.215-3.199-0.32-5.066-0.32-5.597v-0.922z" inkscape:connector-curvature="0"/>
      <path id="path40" style="fill-rule:evenodd;fill:#4a3e29" d="m21.719 20.843c0.828-0.082 1.719-0.16 2.679-0.242l-0.16-1.84h-0.039c-1.094 0.59-1.961 0.883-2.597 0.883l0.117 1.199z" inkscape:connector-curvature="0"/>
      <path id="path42" style="fill-rule:evenodd;fill:#584930" d="m24 16.484c0 0.054 0.016 0.093 0.039 0.117l-0.598-6.356-0.64-3.96c-0.133-0.536-0.199-1.336-0.199-2.403-0.028-0.16-0.094-0.387-0.204-0.68-0.05 0.243-0.089 0.547-0.117 0.922v0.918c0 0.403 0.465 3.774 1.399 10.121 0.054 0.321 0.16 0.762 0.32 1.321zm0.039 0.32-0.719 0.559-0.359 0.039-0.199-1.477c-0.055-0.242-0.188-0.707-0.403-1.402-0.16-0.586-0.265-1.067-0.32-1.438-0.664-5.949-0.973-9.136-0.918-9.562l0.199-1.68-0.082-0.039-0.117-0.082-0.402-0.199v0.922c0 0.531 0.109 2.398 0.32 5.597 0.215 3.121 0.309 4.989 0.281 5.602-0.027 0.48 0.039 1.105 0.2 1.879 0.16 1.015 0.253 1.652 0.281 1.922h-0.403l0.204 2.199c0.636 0 1.503-0.293 2.597-0.883h0.039l-0.16-2-0.039 0.043z" inkscape:connector-curvature="0"/>
      <path id="path44" style="fill-rule:evenodd;fill:#000000;fill-opacity:0.149" d="m23.078 6.042c0.348 0 0.711-0.027 1.082-0.078 0.906-0.109 1.442-0.176 1.602-0.203 0.718-0.16 1.105-0.41 1.16-0.758h0.801c0.343-0.027 0.586-0.093 0.718-0.199 0.211-0.187 0.282-0.469 0.2-0.84-0.055-0.402-0.2-0.668-0.442-0.801-0.238-0.132-0.613-0.265-1.121-0.402-0.558-0.133-0.957-0.226-1.199-0.277-0.371-0.082-0.68-0.16-0.918-0.239 0.051 0.079 0.094 0.157 0.117 0.239 0 0.32 0.016 0.547 0.043 0.679 0.317 0.028 0.586 0.133 0.801 0.321 0.211 0.215 0.266 0.48 0.156 0.801-0.156 0.531-0.73 0.984-1.719 1.359-0.507 0.187-0.945 0.281-1.32 0.281 0 0.051 0.016 0.09 0.039 0.117zm-0.277-3.16c0.051 0.828 0.121 1.613 0.199 2.363h0.039c0.375-0.136 0.602-0.347 0.684-0.644 0.132-0.371 0.156-0.664 0.078-0.879-0.133-0.398-0.469-0.68-1-0.84zm-1.563-1.078c0.242-0.027 0.59-0.094 1.043-0.199 0.426-0.11 0.785-0.16 1.078-0.16-0.211-0.188-0.347-0.293-0.398-0.321-0.266-0.214-0.652-0.308-1.16-0.281-0.559 0-0.946-0.051-1.16-0.16-0.239-0.16-0.399-0.266-0.481-0.32-0.16-0.106-0.348-0.161-0.558-0.161h-1v0.403c-0.028 0.105-0.094 0.199-0.204 0.277-0.183 0.16-0.597 0.227-1.238 0.203-0.535-0.027-0.949-0.093-1.238-0.203-0.16-0.051-0.442-0.226-0.844-0.519-0.344-0.266-0.637-0.387-0.879-0.36-0.238 0.082-0.437 0.121-0.597 0.121-0.082 0.266 0.093 0.453 0.519 0.559l0.957 0.082c0.11 0 0.375 0.039 0.801 0.117 0.266 0.055 0.387 0.149 0.359 0.281h1.043c0.559 0 1.106-0.039 1.641-0.117 0.133 0 0.266-0.015 0.398-0.043 0.055-0.027 0.121-0.039 0.2-0.039 0.054 0 0.093-0.015 0.121-0.039h0.121c0.023-0.027 0.066-0.043 0.117-0.043h0.641c0.347 0 0.535 0.016 0.558 0.043 0.082 0.078 0.094 0.344 0.043 0.797l0.117 0.082z" inkscape:connector-curvature="0"/>
      <path id="path46" style="fill-rule:evenodd;fill:#000000;fill-opacity:0.149" d="m23.359 1.445c-0.293 0-0.652 0.05-1.082 0.156-0.449 0.109-0.797 0.176-1.039 0.203l0.082 0.039c0.215 0.106 0.414 0.199 0.602 0.281 0.266 0.266 0.543 0.453 0.84 0.559 0 0.082 0.011 0.148 0.039 0.199 0.531 0.16 0.867 0.442 1 0.84 0.078 0.215 0.051 0.508-0.082 0.883-0.078 0.293-0.305 0.508-0.68 0.64h-0.039c0 0.239 0.012 0.465 0.039 0.68 0.375 0 0.813-0.094 1.32-0.281 0.985-0.375 1.559-0.828 1.719-1.359 0.11-0.321 0.055-0.586-0.16-0.801-0.211-0.188-0.48-0.293-0.797-0.321-0.027-0.132-0.043-0.359-0.043-0.679-0.023-0.082-0.066-0.16-0.117-0.239-0.133-0.136-0.336-0.269-0.602-0.402-0.347-0.187-0.64-0.308-0.879-0.359-0.027 0-0.066-0.012-0.121-0.039zm-3.597-0.52c0.343 0.238 0.664 0.438 0.957 0.598l0.402 0.199c0.051-0.453 0.039-0.719-0.043-0.797-0.023-0.027-0.211-0.043-0.558-0.043h-0.641c-0.051 0-0.094 0.016-0.117 0.043z" inkscape:connector-curvature="0"/>
    </g>
  </g>
<metadata><rdf:RDF><cc:Work><dc:format>image/svg+xml</dc:format><dc:type rdf:resource="http://purl.org/dc/dcmitype/StillImage"/><cc:license rdf:resource="http://creativecommons.org/licenses/publicdomain/"/><dc:publisher><cc:Agent rdf:about="http://openclipart.org/"><dc:title>Openclipart</dc:title></cc:Agent></dc:publisher></cc:Work><cc:License rdf:about="http://creativecommons.org/licenses/publicdomain/"><cc:permits rdf:resource="http://creativecommons.org/ns#Reproduction"/><cc:permits rdf:resource="http://creativecommons.org/ns#Distribution"/><cc:permits rdf:resource="http://creativecommons.org/ns#DerivativeWorks"/></cc:License></rdf:RDF></metadata></svg>
